<svg width="1970" height="1970" viewBox="0 0 1970 1970" fill="none" xmlns="http://www.w3.org/2000/svg">
<circle cx="985" cy="985" r="985" fill="#080808"/>
<path d="M134 618.486C146.73 618.335 159.46 618.234 172.192 618.163C176.517 618.134 180.841 618.095 185.164 618.044C191.406 617.972 197.649 617.938 203.891 617.913C205.802 617.884 207.71 617.854 209.679 617.821C233.438 617.815 250.972 625.257 268.505 641.218C282.165 655.752 287.769 675.518 292.009 694.535L293.432 700.655C294.979 707.319 296.495 713.987 298.012 720.657C299.111 725.415 300.213 730.172 301.319 734.928C303.064 742.433 304.803 749.94 306.536 757.449C311.021 776.868 315.585 796.268 320.228 815.65C321.774 822.129 323.322 828.608 324.872 835.087C327.969 848.052 331.061 861.017 334.148 873.983L335.064 877.821C339.841 897.887 344.577 917.963 349.272 938.049L355.183 963.303C362.236 993.436 369.552 1023.5 377.279 1053.47L378.328 1057.58C379.245 1061.16 380.168 1064.75 381.096 1068.34C382.34 1074.1 382.34 1074.1 382.34 1081.92H386.251L386.885 1075.34C388.14 1065.39 390.858 1056.03 393.713 1046.43L395.422 1040.57C396.643 1036.38 397.87 1032.2 399.102 1028.01C402.446 1016.65 405.747 1005.28 409.051 993.906L411.148 986.7C420.322 955.112 429.141 923.426 437.982 891.744C444.364 868.897 450.815 846.075 457.532 823.323C458.588 819.733 459.621 816.135 460.632 812.529C462.075 807.68 463.647 802.981 465.348 798.221C473.238 775.061 471.793 758.913 465.117 735.696C464.264 732.475 463.416 729.252 462.575 726.027C460.361 717.651 458.082 709.291 455.739 700.95C453.373 692.409 451.099 683.846 448.821 675.281C446.263 665.67 443.698 656.061 441.052 646.474L439.847 642.088C438.774 638.187 437.695 634.287 436.613 630.389C435.137 624.352 435.137 624.352 435.137 618.486C445.881 618.292 456.627 618.148 467.374 618.056C471.022 618.017 474.668 617.963 478.313 617.895C526.708 617.015 526.708 617.015 545.251 634.374L549.751 638.421C562.201 653.052 568.337 668.244 572.682 686.773L574.362 693.578C575.863 699.689 577.336 705.808 578.797 711.93C580.361 718.457 581.964 724.975 583.562 731.494C586.908 745.195 590.226 758.903 593.517 772.617C595.424 780.544 597.338 788.469 599.258 796.391L600.187 800.228L602.952 811.647C606.609 826.755 610.265 841.865 613.904 856.976C622.361 892.032 630.967 927.051 639.724 962.032L641.433 968.868C646.711 989.977 652.022 1011.08 657.499 1032.14L658.621 1036.5C663.791 1056.21 669.47 1077.1 683.088 1092.72C685.432 1095.61 685.432 1095.61 687.388 1101.48C690.87 1103.49 690.87 1103.49 695.209 1105.39C699.641 1107.9 704.061 1110.43 708.469 1112.97C723.851 1120.74 747.179 1119.47 763.282 1114.19C789.162 1103.09 808.486 1082.54 822.313 1058.46C824.268 1062.37 827.473 1057.92 826.223 1062.71L820.889 1073.29L818.482 1080.29L815.789 1087.97C814.866 1090.64 813.945 1093.31 813.026 1095.97C811.055 1101.68 809.076 1107.38 807.09 1113.08C803.98 1122.01 800.882 1130.95 797.795 1139.89L794.678 1148.9L793.118 1153.42C791.547 1157.96 789.974 1162.5 788.4 1167.04C778.231 1196.39 768.239 1225.8 758.284 1255.22C731.076 1335.6 731.076 1335.6 704.132 1350.5C692.554 1355.81 683.117 1357.89 670.309 1357.83L662.632 1357.81L654.634 1357.76C651.938 1357.75 649.242 1357.74 646.545 1357.74C639.953 1357.71 633.361 1357.68 626.769 1357.64C621.298 1344.11 617.696 1330.35 614.157 1316.21L612.205 1308.5C610.451 1301.56 608.703 1294.62 606.963 1287.68C605.491 1281.83 604.017 1275.98 602.54 1270.13C597.938 1251.9 593.35 1233.66 588.775 1215.42L584.46 1198.24C570.934 1144.43 557.49 1090.6 544.25 1036.71L541.145 1024.09C539.738 1018.38 538.337 1012.67 536.941 1006.96L535.689 1001.88C532.908 990.468 532.908 990.468 532.908 986.107H528.998L528.358 992.717C527.126 1002.51 524.457 1011.69 521.62 1021.13L519.965 1026.74C518.792 1030.71 517.614 1034.69 516.43 1038.67C513.25 1049.34 510.114 1060.04 506.968 1070.72L505.049 1077.24C500.199 1093.76 495.463 1110.31 490.843 1126.89C481.307 1160.95 471.645 1194.98 461.858 1228.98C459.65 1236.66 457.453 1244.34 455.268 1252.02C453.192 1259.33 451.1 1266.63 448.991 1273.92C448.211 1276.64 447.437 1279.35 446.67 1282.06C438.273 1311.77 428.563 1335.2 401.161 1351.33C390.23 1356.44 380.173 1358.12 368.171 1358.02L364.284 1358.01C360.24 1357.98 356.197 1357.94 352.154 1357.88L343.863 1357.83C337.132 1357.79 330.404 1357.72 323.677 1357.64C317.701 1340.84 313.403 1323.63 308.98 1306.37L306.352 1296.17C303.979 1286.97 301.612 1277.77 299.25 1268.57C296.749 1258.84 294.245 1249.12 291.737 1239.39L282.351 1202.95C274.223 1171.37 266.07 1139.8 257.892 1108.23L256.436 1102.61L254.989 1097.01L253.545 1091.44C239.494 1037.14 225.485 982.832 211.719 928.459C202.28 891.206 192.53 854.039 182.731 816.882C172.214 776.936 161.998 736.912 152.084 696.813L150.617 690.894L147.815 679.558C145.595 670.566 143.29 661.596 140.901 652.647L139.512 647.463C138.649 644.264 137.778 641.068 136.898 637.876C135.066 631.102 134 625.561 134 618.486Z" fill="white"/>
<path d="M1179.37 675.858C1221.97 716.48 1245.08 776.402 1247.04 834.659C1248.33 912.399 1218.35 981.164 1164.57 1037.04C1156.62 1045.12 1148.6 1053.12 1140.49 1061.04C1134.41 1067 1128.4 1073.04 1122.46 1079.14C1112.01 1089.84 1100.91 1099.87 1089.22 1109.19C1083.75 1113.7 1078.83 1118.54 1073.91 1123.63C1067.93 1129.63 1061.42 1135.05 1055.01 1140.59C1017.94 1172.79 968.728 1216.57 959.194 1267.69C957.698 1291.05 957.95 1311.98 973.371 1331C986.666 1344.77 1001.7 1350.28 1019.81 1355.68V1357.64H787.116C791.758 1306.58 791.758 1306.58 798.848 1285.29L800.1 1281.52C816.911 1231.89 845.078 1190.06 880.265 1151.53C883.142 1148.37 885.999 1145.2 888.835 1142C899.297 1130.21 910.167 1118.91 921.335 1107.8C924.131 1105.01 926.913 1102.21 929.698 1099.42C939.866 1089.27 950.191 1079.48 961.149 1070.19L968.267 1064.05L971.759 1061.04C984.966 1049.66 997.982 1038.11 1010.74 1026.23C1014.3 1022.93 1017.88 1019.64 1021.46 1016.36C1067.48 973.95 1114.89 925.475 1118.32 859.369C1119.39 823.759 1114.46 790.988 1090.21 763.187C1060.14 737.098 1028.06 727.689 988.873 729.632C958.963 731.826 932.336 747.345 912.263 769.054C892.603 792.499 882.071 822.04 871.811 850.449L868.233 860.251C857.734 889.149 848.012 918.291 838.399 947.493C833.361 962.809 828.257 978.103 823.088 993.375C822.102 996.295 821.122 999.217 820.149 1002.14C808.406 1037.42 792.604 1074.25 757.663 1092.19C745.539 1097.28 732.745 1097.84 720.05 1094.39C704.751 1087.75 695.494 1074.12 688.427 1059.56C685.47 1045.28 690.865 1030.42 695.126 1016.88L696.898 1011.12C698.804 1004.94 700.734 998.762 702.666 992.585L706.675 979.631C710.653 966.791 714.653 953.958 718.675 941.132L720.408 935.604C724.875 921.341 729.372 907.087 733.9 892.842C738.433 878.603 742.917 864.352 747.25 850.052C772.931 765.505 807.294 686.04 888.972 641.689C985.844 591.647 1098.09 602.644 1179.37 675.858Z" fill="white"/>
<path d="M1592.75 766.457C1639.71 770.073 1696.12 797.205 1731.59 827.717L1736.64 832.025C1741.55 836.367 1746.39 840.798 1751.14 845.316L1756.08 849.876C1776.49 869.342 1790.71 893.007 1803.94 917.667L1807.11 923.396C1827.94 964.185 1845.98 894.538 1827.4 1062.37L1824.47 1078.35C1806.35 1165.19 1765.22 1232.67 1690.52 1283.14C1658.13 1303.94 1621.8 1318.44 1584.32 1326.72L1580.19 1327.64C1547.19 1334.39 1514.11 1334.75 1480.57 1334.71C1475.67 1334.72 1470.77 1334.73 1465.87 1334.74C1454.02 1334.77 1442.18 1334.77 1430.33 1334.77C1416.51 1334.76 1402.68 1334.77 1388.86 1334.79C1362.69 1334.8 1336.53 1334.81 1310.37 1334.79C1286.48 1334.78 1262.58 1334.8 1238.69 1334.84C1214.08 1334.88 1189.46 1334.9 1164.85 1334.89C1151.07 1334.88 1137.28 1334.89 1123.49 1334.92C1110.54 1334.94 1097.59 1334.94 1084.64 1334.91C1079.9 1334.91 1075.16 1334.91 1070.41 1334.93C1063.92 1334.95 1057.43 1334.93 1050.94 1334.91L1045.3 1334.95C1026.95 1334.81 1006.4 1331.42 992.435 1318.53C982.927 1305.28 978.608 1291.89 980.702 1275.51C985.272 1259.75 992.292 1240.46 1004.17 1228.58C1006.96 1228.4 1009.76 1228.32 1012.57 1228.33L1018.09 1228.31L1024.24 1228.31L1030.71 1228.3C1037.92 1228.28 1045.14 1228.27 1052.36 1228.28L1067.81 1228.24C1078.94 1228.22 1090.07 1228.21 1101.2 1228.19C1118.81 1228.17 1136.42 1228.13 1154.03 1228.09L1172.11 1228.05L1176.67 1228.04C1193.84 1228 1211 1227.96 1228.17 1227.92L1232.92 1227.91C1258.29 1227.86 1283.66 1227.82 1309.03 1227.79C1335.1 1227.76 1361.16 1227.7 1387.23 1227.63C1403.29 1227.58 1419.35 1227.55 1435.41 1227.55C1446.45 1227.54 1457.49 1227.52 1468.52 1227.48C1474.87 1227.45 1481.23 1227.44 1487.58 1227.45C1545.01 1227.52 1593.31 1219.39 1635.77 1177.74L1639.35 1174.31C1687.85 1123.65 1698.33 1037.94 1696.89 970.826C1694.53 910.985 1684.08 850.65 1643.59 804.252L1640.52 800.609C1631.32 790.529 1621.88 782.361 1610.35 775.256C1604.46 771.506 1598.62 768.412 1592.75 766.457Z" fill="white"/>
<path d="M1203.62 618.486C1248.52 618.347 1293.41 618.246 1338.3 618.182C1359.15 618.154 1380 618.107 1400.85 618.044C1419.05 617.984 1437.24 617.947 1455.43 617.934C1465.04 617.929 1474.66 617.906 1484.27 617.866C1578.38 617.459 1578.38 617.459 1617.93 629.729L1623.01 631.251C1659.15 642.43 1693.52 659.708 1721.81 684.97L1726.85 689.302C1796.25 749.863 1825.54 842.216 1833.27 931.691C1834.3 947.334 1831.76 1012.82 1831.32 1028.48L1827.41 956.134L1811.76 1108.66C1822.52 1112.57 1798.09 866.708 1758.97 825.761L1755.12 821.477C1703.16 765.72 1617.24 739.345 1543.01 735.458C1526.56 734.914 1510.1 734.851 1493.65 734.822C1486.58 734.803 1479.52 734.752 1472.45 734.705C1459.15 734.621 1445.85 734.564 1432.54 734.519C1417.37 734.464 1402.19 734.378 1387.02 734.29C1355.87 734.112 1324.72 733.967 1293.57 733.856L1291.96 730.708C1289.49 725.901 1287.01 721.107 1284.52 716.31L1281.99 711.359C1264.23 677.24 1238.1 648.638 1208.43 624.512L1203.62 620.441V618.486ZM1322.99 802.042L1328.07 802.024L1333.6 802.036L1339.23 802.03C1343.17 802.03 1347.11 802.034 1351.05 802.042C1357.1 802.049 1363.15 802.044 1369.2 802.028C1373.02 802.028 1376.83 802.031 1380.65 802.036L1386.17 802.024L1391.26 802.044L1395.75 802.048C1399.17 802.296 1399.17 802.296 1401.12 804.252C1401.32 808.341 1401.38 812.437 1401.39 816.53L1401.41 820.46C1401.43 824.84 1401.43 829.221 1401.44 833.601L1401.47 842.987C1401.49 851.513 1401.51 860.038 1401.51 868.564C1401.52 873.892 1401.53 879.22 1401.54 884.548C1401.56 901.224 1401.58 917.9 1401.59 934.576C1401.6 953.814 1401.63 973.053 1401.69 992.292C1401.73 1007.16 1401.75 1022.03 1401.75 1036.91C1401.75 1045.79 1401.77 1054.67 1401.8 1063.54C1401.83 1071.91 1401.84 1080.28 1401.82 1088.64C1401.82 1091.7 1401.83 1094.76 1401.85 1097.82C1402 1124.31 1398.89 1145.55 1380.34 1165.53C1368.5 1176.48 1352.8 1183.88 1336.53 1183.83H1331.9L1326.97 1183.8L1321.87 1183.79C1316.51 1183.78 1311.15 1183.75 1305.79 1183.73C1302.15 1183.72 1298.52 1183.71 1294.88 1183.7C1285.97 1183.68 1277.06 1183.65 1268.15 1183.61C1267.69 1161.81 1267.35 1140.02 1267.14 1118.22C1267.03 1108.1 1266.9 1097.97 1266.68 1087.85C1266.47 1078.05 1266.34 1068.25 1266.29 1058.45C1266.26 1054.74 1266.19 1051.03 1266.08 1047.32C1265.32 1019.9 1271.11 1002.04 1285.3 978.669C1313.87 927.657 1316.91 865.015 1313.14 808.278L1313.13 804.252C1316.12 801.26 1318.82 802.048 1322.99 802.042Z" fill="white"/>
<path d="M1057.93 618.822V616.866C1087.15 618.861 1112.02 625.578 1138.1 638.376L1142.4 640.443C1160.98 649.438 1176.15 658.906 1190.9 673.574C1193.53 675.833 1196.18 678.074 1198.84 680.297C1216.02 695.4 1228.61 712.338 1239.78 732.237L1243.39 738.568C1259.71 769.026 1267.4 801.522 1269.12 835.875L1269.34 840.095C1271.13 878.4 1263.01 913.615 1249.56 949.29L1248.1 953.246C1237.49 981.605 1220.36 1006.58 1201.42 1029.99C1199.46 1032.46 1197.53 1034.95 1195.63 1037.46C1184.44 1052.03 1171.73 1064.88 1158.72 1077.8C1154.92 1081.58 1151.14 1085.37 1147.37 1089.17L1140.13 1096.39L1136.71 1099.83C1128.77 1107.68 1130.29 1105.72 1126.38 1109.64L1122.46 1113.55C1119.54 1116.14 1116.52 1118.63 1113.41 1121C1102.55 1129.66 1092.42 1138.93 1082.31 1148.46C1075.74 1154.66 1069.13 1160.76 1062.33 1166.71C1052.19 1175.79 1042.54 1185.36 1032.88 1194.94L1027.99 1199.76C1019.4 1208.33 1011.64 1216.69 1005.13 1226.96V1230.87L1000.7 1235.08C994.577 1241.46 991.53 1247.44 988.022 1255.44L986.227 1259.35C980.028 1273.05 978.949 1285.55 983.636 1300.29C985.578 1305.1 1001.24 1322.78 1000.7 1328.77L996.347 1324.73C999.28 1327.67 992.422 1323.11 997.31 1324.73L1001.24 1327.67L994.391 1322.78L1001.24 1323.76L1011 1328.77C1022.52 1332.86 1034.41 1334.8 1046.51 1334.78L1052.63 1334.8C1059.4 1334.82 1066.18 1334.82 1072.96 1334.83L1087.53 1334.85C1100.74 1334.88 1113.96 1334.89 1127.17 1334.9C1135.44 1334.91 1143.54 1334.5 1151.8 1334.51C1174.75 1334.54 1197.3 1334.5 1220.24 1334.51H1230.02H1238.82H1242.73C1266.61 1334.52 1291.2 1334.46 1315.08 1334.51C1339.66 1334.56 1363.83 1334.51 1388.41 1334.51C1402.19 1334.51 1416.68 1334.48 1430.45 1334.51C1443.45 1334.54 1455.59 1334.53 1468.58 1334.51C1473.32 1334.51 1478.52 1334.49 1483.25 1334.51C1541.97 1334.74 1597 1328.52 1650.43 1303.22L1654.77 1301.18C1694.42 1282.17 1729.45 1254.23 1756.02 1219.14L1760.69 1213.14C1791.63 1172.49 1810.51 1124.24 1820.55 1074.44H1822.5C1820.4 1152.63 1782.9 1226.29 1726.69 1279.76L1722.78 1283.56C1657.7 1344.9 1573.8 1358.16 1487.16 1357.98C1484.13 1357.98 1475.53 1357.97 1472.49 1357.98C1464.25 1357.98 1456.3 1357.99 1448.05 1357.98C1439.12 1357.97 1429.6 1357.97 1420.68 1357.98C1405.23 1357.98 1390.16 1357.99 1374.72 1357.98C1352.4 1357.96 1328.61 1357.98 1306.28 1357.98C1270.06 1357.97 1235.94 1358 1199.71 1357.98C1164.53 1357.96 1133.2 1357.98 1098.03 1357.98H1087.53H1056.97C1045.39 1357.97 1019.81 1357.98 1009.06 1357H1011.01L989.489 1350.15C973.888 1339.62 960.595 1327.31 955.216 1308.72C951.69 1287.77 952.625 1267.64 962.112 1248.47L965.061 1242.34C986.199 1200.8 1022.79 1164.19 1058.2 1134.24C1062.51 1130.57 1066.69 1126.77 1070.88 1122.96C1077.67 1116.83 1084.55 1110.83 1091.54 1104.93C1103.17 1095.09 1114.12 1085.04 1124.63 1073.98C1128.32 1070.53 1127.36 1069.55 1131.27 1069.55L1133.74 1067.08C1136.42 1062.21 1139.37 1059.16 1143.4 1055.34L1147.81 1051.09L1152.52 1046.57C1168.48 1030.92 1182.31 1014.73 1194.81 996.22L1197.08 992.871C1236.81 933.408 1250.52 863.581 1236.84 793.489C1225.06 738.314 1193.28 686.241 1145.68 654.997C1141.87 652.677 1138.04 650.396 1134.19 648.153L1130.84 646.196C1107.75 632.844 1084.23 623.898 1057.93 618.822Z" fill="white"/>
<path d="M513.354 618.486C536.745 616.857 555.723 623.283 573.973 638.04C590.844 653.029 594.673 676.363 599.83 697.421L601.593 704.504C603.184 710.906 604.768 717.31 606.345 723.716C608.037 730.577 609.742 737.435 611.445 744.295C615.53 760.752 619.593 777.213 623.653 793.675C625.609 801.612 627.569 809.548 629.531 817.485C635.9 843.277 642.264 869.07 648.624 894.863C667.204 970.222 667.204 970.222 674.165 998.204C675.143 1002.13 676.118 1006.06 677.089 1010C678.399 1015.29 679.714 1020.57 681.033 1025.86L682.138 1030.36C687.822 1052.99 694.57 1075.99 714.764 1089.75C725.773 1094.9 736.049 1095.32 748.007 1093.66C759.211 1089.51 768.93 1084.57 777.338 1076.06L780.271 1074.44L782.747 1072.73C785.504 1067.59 788.867 1063.4 792.493 1058.82C809.378 1035.67 816.73 1005.72 825.786 978.812C827.856 972.663 829.933 966.517 832.016 960.374C834.747 952.312 837.475 944.25 840.201 936.185C847.155 915.632 854.192 895.108 861.422 874.648L863.977 867.391C891.618 789.098 891.618 789.098 916.174 763.188L920.237 758.88C944.023 735.8 975.216 726.964 1007.65 727.163C1031 727.873 1053.22 734.132 1072.61 747.545L1074.56 751.456L1070.77 750.31C1067.24 749.247 1063.71 748.193 1060.17 747.148C1056.27 745.962 1052.39 744.709 1048.53 743.389C1019.53 736.506 989.714 739.901 963.104 753.411C924.207 778.851 909.478 819.295 894.805 861.22C891.019 872.022 887.022 882.737 882.982 893.447C875.82 912.454 869.065 931.51 863.045 950.91C857.421 969.001 851.42 986.962 845.413 1004.93L843.879 1009.51C841.478 1016.69 839.075 1023.88 836.67 1031.06C833.179 1041.49 829.697 1051.93 826.224 1062.37L822.313 1060.41L819.937 1064.5C805.457 1088.44 784.855 1110.23 757.082 1118.22C737.696 1121.43 718.495 1121.05 701.076 1111.26L697.402 1109.32C671.174 1093.24 662.671 1059.71 655.466 1031.81L654.206 1026.98C649.081 1007.22 644.175 987.404 639.275 967.584L636.167 955.049L629.685 928.856C627.517 920.092 625.347 911.329 623.174 902.566C610.952 853.296 598.86 804.006 587.182 754.606L586.099 750.02L585.037 745.527C581.271 729.691 577.445 713.87 573.558 698.064C572.843 695.142 572.129 692.218 571.417 689.294C565.291 664.147 557.049 643.168 534.864 628.263C527.838 625.05 520.781 622.553 513.354 620.441V618.486Z" fill="white"/>
<path d="M1291.62 729.303C1324.27 729.165 1356.71 730.38 1389.36 730.316C1404.53 730.284 1419.7 730.243 1434.87 730.177C1448.11 730.117 1461.35 730.08 1474.59 730.067C1481.59 730.059 1488.58 730.042 1495.57 729.999C1592.81 729.42 1686.92 751.906 1758.5 821.423C1796.53 859.472 1819.71 906.058 1829.14 958.762C1829.95 980.429 1831.41 1002.42 1829.14 1023.93H1827.18L1826.74 1017.46C1822.61 965.818 1807.68 917.097 1776.34 875.321L1772.79 870.464C1734.52 820.293 1669.02 784.057 1609.06 768.996C1606.16 768.697 1603.24 768.447 1600.33 768.247C1596 767.717 1592.33 766.493 1588.26 764.962C1532.07 745.371 1458.53 755.865 1400.05 756.039C1384.35 756.088 1368.66 756.124 1352.97 756.149C1346.73 756.162 1340.5 756.183 1334.26 756.211L1322.89 756.231L1317.66 756.26C1311.02 756.26 1301.86 754.724 1301.39 753.746C1299.11 748.918 1299.48 748.918 1297.48 742.991L1294.55 737.125C1293.04 732.297 1291.62 731.258 1291.62 729.303Z" fill="white"/>
</svg>
