<svg width="1057" height="507" viewBox="0 0 1057 507" fill="none" xmlns="http://www.w3.org/2000/svg">
<path d="M94 66.8282C100.51 66.7512 107.02 66.6992 113.531 66.6632C115.743 66.6485 117.954 66.6282 120.165 66.6022C123.357 66.5652 126.55 66.5482 129.742 66.5352C130.719 66.5202 131.695 66.5052 132.702 66.4882C144.852 66.4852 153.819 70.2912 162.785 78.4532C169.771 85.8862 172.637 95.9942 174.805 105.719L175.533 108.849C176.324 112.257 177.099 115.667 177.875 119.078C178.437 121.512 179.001 123.944 179.566 126.376C180.459 130.214 181.348 134.053 182.234 137.893C184.528 147.824 186.862 157.745 189.236 167.657C190.027 170.971 190.818 174.284 191.611 177.597C193.195 184.227 194.776 190.858 196.355 197.488L196.823 199.451C199.266 209.713 201.688 219.979 204.089 230.251L207.112 243.166C210.719 258.576 214.46 273.949 218.412 289.276L218.948 291.377C219.417 293.212 219.889 295.046 220.364 296.879C221 299.828 221 299.828 221 303.828H223L223.324 300.463C223.966 295.371 225.356 290.585 226.816 285.676L227.69 282.681C228.315 280.539 228.942 278.398 229.572 276.256C231.282 270.446 232.97 264.631 234.66 258.816L235.732 255.131C240.424 238.977 244.934 222.773 249.455 206.571C252.719 194.887 256.018 183.216 259.453 171.581C259.993 169.745 260.521 167.905 261.038 166.061C261.776 163.581 262.58 161.178 263.45 158.744C267.485 146.9 266.746 138.642 263.332 126.769C262.895 125.122 262.462 123.474 262.032 121.824C260.9 117.541 259.734 113.266 258.536 109C257.326 104.632 256.163 100.253 254.998 95.8732C253.69 90.9582 252.378 86.0442 251.025 81.1412L250.409 78.8982C249.86 76.9032 249.308 74.9089 248.755 72.9152C248 69.8282 248 69.8282 248 66.8282C253.495 66.7288 258.99 66.6555 264.486 66.6082C266.351 66.5882 268.216 66.5608 270.08 66.5262C294.829 66.0762 294.829 66.0762 304.312 74.9532L306.613 77.0232C312.98 84.5052 316.118 92.2742 318.34 101.75L319.199 105.23C319.967 108.355 320.72 111.484 321.467 114.615C322.267 117.953 323.087 121.286 323.904 124.62C325.615 131.627 327.312 138.637 328.995 145.65C329.97 149.704 330.949 153.757 331.931 157.808L332.406 159.77L333.82 165.61C335.69 173.336 337.56 181.063 339.421 188.791C343.745 206.718 348.147 224.627 352.625 242.516L353.499 246.012C356.198 256.807 358.914 267.598 361.715 278.367L362.289 280.599C364.933 290.679 367.837 301.359 374.801 309.348C376 310.828 376 310.828 377 313.828C378.781 314.855 378.781 314.855 381 315.828C383.266 317.111 385.526 318.404 387.781 319.707C395.647 323.681 407.577 323.03 415.812 320.328C429.047 314.653 438.929 304.144 446 291.828C447 293.828 448.639 291.552 448 294L445.272 299.412L444.041 302.992L442.664 306.922C442.192 308.285 441.721 309.649 441.251 311.013C440.243 313.931 439.231 316.848 438.215 319.763C436.625 324.33 435.04 328.9 433.462 333.471L431.868 338.079L431.07 340.389C430.267 342.711 429.462 345.034 428.657 347.357C423.457 362.366 418.347 377.404 413.256 392.45C399.342 433.557 399.342 433.557 385.563 441.176C379.642 443.893 374.816 444.954 368.266 444.926L364.34 444.916L360.25 444.89C358.871 444.885 357.492 444.881 356.113 444.877C352.742 444.865 349.371 444.849 346 444.828C343.202 437.91 341.36 430.872 339.55 423.641L338.552 419.696C337.655 416.15 336.761 412.601 335.871 409.05C335.118 406.059 334.364 403.068 333.609 400.077C331.256 390.753 328.909 381.427 326.57 372.099L324.363 363.314C317.446 335.794 310.571 308.264 303.8 280.708L302.212 274.253C301.493 271.333 300.776 268.413 300.062 265.493L299.422 262.892C298 257.058 298 257.058 298 254.828H296L295.673 258.208C295.043 263.218 293.678 267.913 292.227 272.738L291.381 275.606C290.781 277.64 290.178 279.673 289.573 281.706C287.947 287.167 286.343 292.635 284.734 298.101L283.753 301.434C281.272 309.88 278.851 318.343 276.488 326.822C271.611 344.244 266.67 361.647 261.665 379.032C260.536 382.959 259.412 386.887 258.295 390.816C257.233 394.552 256.163 398.285 255.085 402.016C254.686 403.403 254.29 404.791 253.898 406.179C249.604 421.372 244.638 433.35 230.625 441.601C225.035 444.213 219.892 445.076 213.754 445.023L211.766 445.015C209.698 445.002 207.631 444.981 205.563 444.953L201.323 444.926C197.881 444.903 194.44 444.87 191 444.828C187.944 436.235 185.746 427.435 183.484 418.609L182.14 413.394C180.927 408.69 179.716 403.984 178.508 399.278C177.229 394.305 175.949 389.332 174.666 384.358L169.866 365.722C165.709 349.572 161.54 333.426 157.358 317.282L156.613 314.407L155.873 311.544L155.135 308.697C147.949 280.927 140.785 253.153 133.745 225.347C128.918 206.296 123.932 187.289 118.921 168.287C113.543 147.859 108.318 127.391 103.248 106.884L102.498 103.857L101.065 98.0602C99.9294 93.4619 98.7507 88.8743 97.529 84.2982L96.819 81.6472C96.3777 80.0112 95.932 78.3768 95.482 76.7442C94.545 73.2802 94 70.4462 94 66.8282Z" fill="white"/>
<path d="M628.598 96.168C650.382 116.942 662.199 147.586 663.203 177.378C663.864 217.134 648.529 252.3 621.029 280.876C616.964 285.006 612.86 289.096 608.715 293.146C605.605 296.196 602.53 299.283 599.492 302.406C594.15 307.875 588.474 313.007 582.496 317.773C579.696 320.079 577.184 322.553 574.664 325.156C571.607 328.227 568.276 330.995 565 333.828C546.044 350.297 520.876 372.688 516 398.828C515.235 410.775 515.364 421.476 523.25 431.203C530.049 438.246 537.736 441.064 547 443.828V444.828H428C430.374 418.719 430.374 418.719 434 407.828L434.64 405.902C443.237 380.518 457.642 359.13 475.636 339.427C477.107 337.811 478.568 336.186 480.019 334.552C485.369 328.524 490.928 322.745 496.639 317.059C498.069 315.635 499.492 314.205 500.916 312.775C506.116 307.583 511.396 302.58 517 297.828L520.64 294.688L522.426 293.151C529.18 287.328 535.836 281.424 542.363 275.347C544.183 273.657 546.013 271.979 547.843 270.301C571.379 248.611 595.623 223.821 597.375 190.015C597.923 171.804 595.4 155.045 583 140.828C567.625 127.486 551.22 122.674 531.178 123.668C515.882 124.79 502.265 132.726 492 143.828C481.946 155.818 476.56 170.925 471.313 185.453L469.483 190.466C464.114 205.244 459.142 220.147 454.226 235.081C451.65 242.913 449.04 250.735 446.396 258.545C445.892 260.038 445.391 261.532 444.893 263.027C438.888 281.069 430.807 299.902 412.938 309.078C406.738 311.682 400.195 311.97 393.703 310.203C385.879 306.806 381.145 299.84 377.531 292.394C376.019 285.089 378.778 277.488 380.957 270.566L381.863 267.622C382.838 264.459 383.825 261.3 384.813 258.141L386.863 251.516C388.898 244.95 390.943 238.387 393 231.828L393.886 229.001C396.17 221.707 398.471 214.417 400.786 207.133C403.104 199.851 405.397 192.563 407.613 185.25C420.746 142.013 438.319 101.375 480.089 78.694C529.629 53.103 587.031 58.727 628.598 96.168Z" fill="white"/>
<path d="M840 142.5C864.011 144.349 892.861 158.224 910.999 173.828L913.581 176.031C916.095 178.252 918.568 180.518 920.999 182.828L923.526 185.16C933.964 195.115 941.234 207.217 947.999 219.828L949.62 222.758C960.271 243.617 964.716 270.876 959.999 293.828L959.436 296.608C950.169 341.018 928.199 380.921 889.999 406.731C873.431 417.367 854.852 424.783 835.687 429.017L833.572 429.487C816.698 432.94 799.781 433.124 782.63 433.104C780.124 433.109 777.617 433.114 775.11 433.119C769.052 433.13 762.995 433.134 756.938 433.131C749.868 433.128 742.798 433.132 735.728 433.141C722.348 433.15 708.969 433.151 695.59 433.144C683.37 433.138 671.15 433.15 658.931 433.169C646.345 433.189 633.76 433.197 621.174 433.193C614.124 433.19 607.074 433.194 600.022 433.207C593.399 433.221 586.776 433.217 580.152 433.205C577.728 433.202 575.302 433.205 572.876 433.214C569.557 433.224 566.238 433.216 562.919 433.204L560.035 433.226C550.652 433.151 540.139 431.419 532.999 424.829C528.137 418.052 525.928 411.206 526.999 402.829C529.336 394.769 532.926 384.902 538.999 378.829C540.429 378.737 541.862 378.694 543.294 378.699L546.12 378.688L549.262 378.691L552.572 378.682C556.262 378.675 559.952 378.671 563.644 378.672L571.547 378.656C577.237 378.645 582.927 378.636 588.619 378.63C597.625 378.62 606.631 378.599 615.638 378.577L624.883 378.554L627.218 378.549C635.996 378.528 644.774 378.509 653.552 378.491L655.984 378.486C668.958 378.461 681.932 378.44 694.906 378.425C708.236 378.407 721.566 378.379 734.896 378.34C743.11 378.315 751.323 378.302 759.537 378.3C765.181 378.298 770.825 378.286 776.468 378.264C779.717 378.251 782.966 378.246 786.214 378.251C815.582 378.283 840.286 374.13 861.999 352.829L863.827 351.075C888.633 325.168 893.993 281.335 893.253 247.013C892.049 216.411 886.705 185.556 865.999 161.828L864.425 159.965C859.72 154.81 854.893 150.633 849 147C845.988 145.082 843 143.5 840 142.5Z" fill="white"/>
<path d="M641 66.8283C663.959 66.7576 686.917 66.706 709.876 66.6733C720.539 66.6586 731.201 66.635 741.863 66.6023C751.167 66.5716 760.47 66.553 769.773 66.5463C774.69 66.5436 779.607 66.532 784.523 66.5113C832.648 66.3033 832.648 66.3033 852.875 72.5783L855.473 73.3563C873.953 79.0733 891.53 87.9093 906 100.828L908.578 103.043C944.067 134.014 959.044 181.243 963 227C963.525 235 962.227 268.49 962 276.5L960 239.5L952 317.5C957.5 319.5 945.009 193.768 925 172.828L923.035 170.637C896.46 142.123 852.521 128.635 814.559 126.647C806.147 126.369 797.733 126.337 789.317 126.322C785.704 126.312 782.091 126.286 778.478 126.262C771.676 126.219 764.873 126.19 758.07 126.167C750.31 126.139 742.549 126.095 734.788 126.05C718.858 125.959 702.929 125.885 687 125.828L686.176 124.218C684.914 121.76 683.643 119.308 682.371 116.855L681.077 114.323C671.994 96.8753 658.634 82.2483 643.457 69.9103L641 67.8283V66.8283ZM702.045 160.698L704.644 160.689L707.469 160.695L710.349 160.692C712.364 160.692 714.378 160.694 716.392 160.698C719.487 160.702 722.582 160.699 725.676 160.691C727.627 160.691 729.579 160.693 731.531 160.695L734.356 160.689L736.956 160.699L739.254 160.701C741 160.828 741 160.828 742 161.828C742.103 163.919 742.135 166.014 742.14 168.107L742.15 170.117C742.157 172.357 742.16 174.597 742.161 176.837L742.176 181.637C742.189 185.997 742.197 190.357 742.2 194.717C742.203 197.442 742.207 200.167 742.212 202.891C742.225 211.419 742.234 219.947 742.239 228.475C742.244 238.314 742.26 248.153 742.289 257.991C742.312 265.596 742.323 273.201 742.323 280.806C742.323 285.348 742.331 289.889 742.348 294.429C742.363 298.709 742.367 302.987 742.358 307.265C742.357 308.83 742.361 310.395 742.371 311.96C742.451 325.504 740.86 336.365 731.371 346.582C725.319 352.185 717.291 355.969 708.966 355.942H706.6L704.077 355.926L701.471 355.921C698.731 355.916 695.99 355.903 693.249 355.891C691.389 355.885 689.528 355.881 687.667 355.877C683.111 355.866 678.555 355.85 673.999 355.828C673.766 344.683 673.589 333.538 673.481 322.391C673.429 317.213 673.359 312.036 673.245 306.859C673.138 301.848 673.073 296.836 673.05 291.823C673.032 289.927 672.996 288.03 672.942 286.134C672.554 272.109 675.512 262.975 682.769 251.024C697.379 224.937 698.934 192.902 697.009 163.887L697 161.828C698.53 160.298 699.912 160.701 702.045 160.698Z" fill="white"/>
<path d="M566.493 67V66C581.436 67.02 594.154 70.455 607.493 77L609.693 78.057C619.193 82.657 626.951 87.499 634.493 95C635.839 96.1554 637.193 97.3015 638.556 98.438C647.34 106.162 653.779 114.824 659.493 125L661.337 128.238C669.683 143.814 673.617 160.432 674.493 178L674.61 180.158C675.522 199.747 671.37 217.756 664.493 236L663.747 238.023C658.321 252.526 649.561 265.296 639.873 277.271C638.869 278.531 637.882 279.805 636.913 281.092C631.189 288.54 624.688 295.11 618.036 301.717C616.095 303.65 614.16 305.59 612.231 307.535L608.532 311.227L606.783 312.987C602.723 317 603.5 316 601.5 318L599.493 320C597.998 321.327 596.455 322.599 594.868 323.813C589.31 328.243 584.131 332.979 578.964 337.856C575.604 341.026 572.221 344.146 568.743 347.188C563.557 351.83 558.623 356.725 553.681 361.625L551.18 364.087C546.788 368.471 542.82 372.749 539.493 378V380L537.227 382.152C534.095 385.415 532.537 388.472 530.743 392.562L529.825 394.561C526.655 401.568 526.103 407.96 528.5 415.5C529.493 417.96 537.5 427 537.227 430.062L535 428C536.5 429.5 532.993 427.172 535.493 428L537.5 429.5L534 427L537.5 427.5L542.493 430.062C548.383 432.158 554.467 433.146 560.652 433.14L563.781 433.15C567.247 433.157 570.713 433.16 574.18 433.161L581.632 433.176C588.388 433.189 595.145 433.197 601.903 433.2C606.133 433.203 610.363 433.207 614.591 433.212C626.326 433.225 638.061 433.233 649.795 433.238H654.351L658.927 433.24H661.219C673.431 433.246 685.642 433.261 697.854 433.286C710.424 433.309 722.994 433.322 735.566 433.323C742.61 433.322 749.654 433.33 756.698 433.348C763.342 433.364 769.987 433.367 776.631 433.358C779.051 433.357 781.471 433.361 783.891 433.371C813.921 433.488 842.17 429.935 869.493 417L871.716 415.953C891.991 406.233 909.907 391.946 923.493 374L925.883 370.934C941.707 350.144 951.359 325.469 956.493 300H957.493C956.417 339.988 937.24 377.655 908.493 405L906.497 406.945C873.214 438.315 830.308 445.095 786 445C784.449 445 780.052 444.998 778.5 445C774.281 445.001 770.219 445.006 766 445C761.434 444.997 756.566 444.998 752 445C744.103 445 736.397 445.005 728.5 445C717.083 444.993 704.916 445.001 693.5 445C674.973 444.997 657.527 445.01 639 445C621.011 444.991 604.989 445.004 587 445H581.632H566C560.08 444.999 552.92 445.002 547 445H542.493L531.493 441C523.515 435.612 516.717 429.316 513.966 419.809C512.163 409.096 512.641 398.804 517.493 389L519.001 385.863C529.811 364.619 548.523 345.897 566.63 330.582C568.838 328.707 570.975 326.762 573.118 324.812C576.587 321.681 580.109 318.609 583.681 315.595C589.629 310.563 595.231 305.421 600.602 299.765C602.493 298 602 297.5 604 297.5L605.261 296.235C606.633 293.745 608.141 292.185 610.204 290.235L612.46 288.061L614.868 285.75C623.028 277.747 630.1 269.467 636.493 260L637.655 258.287C657.972 227.878 664.983 192.169 657.989 156.324C651.965 128.108 635.712 101.478 611.368 85.5C609.421 84.3136 607.463 83.1469 605.493 82L603.781 80.999C591.969 74.171 579.943 69.596 566.493 67Z" fill="white"/>
<path d="M288 66.8283C299.962 65.9953 309.667 69.2813 319 76.8283C327.628 84.4933 329.586 96.4263 332.223 107.195L333.125 110.817C333.938 114.091 334.748 117.366 335.555 120.642C336.42 124.151 337.292 127.658 338.163 131.166C340.252 139.582 342.33 148 344.406 156.419C345.407 160.478 346.409 164.537 347.412 168.595C350.669 181.785 353.924 194.976 357.176 208.166C366.678 246.704 366.678 246.704 370.238 261.014C370.738 263.024 371.236 265.034 371.733 267.044C372.403 269.75 373.075 272.454 373.75 275.156L374.315 277.456C377.222 289.033 380.673 300.796 391 307.828C396.63 310.464 401.885 310.68 408 309.828C413.73 307.706 418.7 305.181 423 300.828L424.5 300L425.766 299.128C427.176 296.498 428.896 294.354 430.75 292.015C439.385 280.173 443.145 264.86 447.776 251.097C448.835 247.953 449.897 244.81 450.962 241.668C452.359 237.546 453.754 233.422 455.148 229.298C458.704 218.787 462.303 208.291 466 197.828L467.307 194.117C481.442 154.078 481.442 154.078 494 140.828L496.078 138.625C508.242 126.822 524.194 122.303 540.782 122.405C552.723 122.768 564.084 125.969 574 132.828L575 134.828L573.059 134.242C571.254 133.699 569.448 133.16 567.641 132.625C565.646 132.019 563.661 131.378 561.688 130.703C546.856 127.183 531.608 128.919 518 135.828C498.108 148.838 490.576 169.521 483.072 190.961C481.136 196.485 479.092 201.965 477.026 207.442C473.363 217.162 469.909 226.907 466.83 236.828C463.954 246.08 460.885 255.265 457.813 264.453L457.029 266.796C455.801 270.47 454.572 274.144 453.342 277.817C451.557 283.153 449.776 288.49 448 293.828L446 292.828L444.785 294.918C437.38 307.158 426.844 318.303 412.641 322.391C402.727 324.033 392.908 323.838 384 318.828L382.121 317.836C368.708 309.614 364.36 292.47 360.675 278.201L360.031 275.731C357.41 265.624 354.901 255.491 352.395 245.355L350.806 238.945L347.491 225.55C346.382 221.068 345.272 216.587 344.161 212.105C337.911 186.909 331.727 161.702 325.755 136.439L325.201 134.094L324.658 131.796C322.732 123.698 320.776 115.608 318.788 107.524C318.422 106.03 318.057 104.535 317.693 103.039C314.56 90.1793 310.345 79.4503 299 71.8283C295.407 70.1853 291.798 68.9083 288 67.8283V66.8283Z" fill="white"/>
<path d="M686 123.5C702.7 123.429 719.287 124.05 735.988 124.018C743.745 124.002 751.501 123.981 759.258 123.947C766.03 123.916 772.802 123.897 779.574 123.891C783.149 123.887 786.724 123.878 790.3 123.856C840.028 123.56 888.154 135.059 924.762 170.61C944.212 190.068 956.066 213.891 960.887 240.844C961.3 251.924 962.05 263.169 960.887 274.173H959.887L959.66 270.861C957.548 244.453 949.91 219.537 933.887 198.173L932.071 195.689C912.501 170.032 879 151.5 848.341 143.799C846.854 143.646 845.365 143.518 843.874 143.416C841.658 143.145 839.785 142.519 837.7 141.736C808.965 131.717 771.359 137.084 741.45 137.173C733.425 137.197 725.401 137.216 717.377 137.229C714.187 137.235 710.997 137.246 707.807 137.261L701.995 137.271L699.318 137.286C695.923 137.286 691.237 136.5 691 136C689.832 133.531 690.019 133.531 689 130.5L687.5 127.5C686.73 125.031 686 124.5 686 123.5Z" fill="white"/>
</svg>
